<svg width="1600" height="900" viewBox="0 0 1600 900" fill="none" xmlns="http://www.w3.org/2000/svg">
  <rect width="1600" height="900" fill="#D8F1FF"/>
  <path d="M0 520H1600V900H0V520Z" fill="#7FC86D"/>
  <path d="M0 250C215 280 418 210 620 210C824 210 1025 280 1210 272C1365 266 1497 232 1600 216V520H0V250Z" fill="#C7E7FF"/>
  <rect x="76" y="186" width="180" height="188" rx="18" fill="#FFF9EE"/>
  <rect x="256" y="136" width="224" height="238" rx="18" fill="#F7FBFF"/>
  <rect x="508" y="174" width="198" height="200" rx="18" fill="#FFF9EE"/>
  <rect x="770" y="146" width="248" height="228" rx="18" fill="#F7FBFF"/>
  <rect x="1072" y="174" width="188" height="200" rx="18" fill="#FFF9EE"/>
  <rect x="1284" y="124" width="238" height="250" rx="18" fill="#F7FBFF"/>
  <g fill="#9CC7E8">
    <rect x="110" y="218" width="44" height="44" rx="8"/>
    <rect x="168" y="218" width="44" height="44" rx="8"/>
    <rect x="110" y="282" width="44" height="44" rx="8"/>
    <rect x="168" y="282" width="44" height="44" rx="8"/>
    <rect x="294" y="172" width="50" height="50" rx="8"/>
    <rect x="362" y="172" width="50" height="50" rx="8"/>
    <rect x="294" y="240" width="50" height="50" rx="8"/>
    <rect x="362" y="240" width="50" height="50" rx="8"/>
    <rect x="294" y="308" width="50" height="50" rx="8"/>
    <rect x="362" y="308" width="50" height="50" rx="8"/>
    <rect x="540" y="206" width="42" height="42" rx="8"/>
    <rect x="596" y="206" width="42" height="42" rx="8"/>
    <rect x="540" y="266" width="42" height="42" rx="8"/>
    <rect x="596" y="266" width="42" height="42" rx="8"/>
    <rect x="808" y="184" width="48" height="48" rx="8"/>
    <rect x="872" y="184" width="48" height="48" rx="8"/>
    <rect x="936" y="184" width="48" height="48" rx="8"/>
    <rect x="808" y="250" width="48" height="48" rx="8"/>
    <rect x="872" y="250" width="48" height="48" rx="8"/>
    <rect x="936" y="250" width="48" height="48" rx="8"/>
    <rect x="1108" y="204" width="42" height="42" rx="8"/>
    <rect x="1164" y="204" width="42" height="42" rx="8"/>
    <rect x="1108" y="264" width="42" height="42" rx="8"/>
    <rect x="1164" y="264" width="42" height="42" rx="8"/>
    <rect x="1318" y="160" width="52" height="52" rx="8"/>
    <rect x="1388" y="160" width="52" height="52" rx="8"/>
    <rect x="1458" y="160" width="52" height="52" rx="8"/>
    <rect x="1318" y="230" width="52" height="52" rx="8"/>
    <rect x="1388" y="230" width="52" height="52" rx="8"/>
    <rect x="1458" y="230" width="52" height="52" rx="8"/>
  </g>
  <path d="M0 580H1600" stroke="#F3FCFF" stroke-width="10" stroke-linecap="round" stroke-dasharray="2 26"/>
  <path d="M0 660H1600" stroke="#6AB058" stroke-width="6" stroke-linecap="round" stroke-dasharray="8 28"/>
  <circle cx="146" cy="474" r="46" fill="#94C96B"/>
  <circle cx="198" cy="490" r="38" fill="#8AC160"/>
  <rect x="160" y="490" width="16" height="52" rx="8" fill="#7D6544"/>
  <circle cx="1324" cy="472" r="50" fill="#94C96B"/>
  <circle cx="1384" cy="488" r="42" fill="#8AC160"/>
  <rect x="1344" y="496" width="18" height="56" rx="9" fill="#7D6544"/>
</svg>
