<svg width="200" height="200" viewBox="0 0 200 200" fill="none" xmlns="http://www.w3.org/2000/svg">
  <ellipse cx="100" cy="182" rx="44" ry="12" fill="#32587A" fill-opacity="0.14"/>
  <circle cx="100" cy="94" r="34" fill="#FF975B"/>
  <path d="M100 18L112 58L88 58L100 18Z" fill="#F0C25F"/>
  <path d="M100 170L88 130H112L100 170Z" fill="#F0C25F"/>
  <path d="M24 94L64 82V106L24 94Z" fill="#F0C25F"/>
  <path d="M176 94L136 106V82L176 94Z" fill="#F0C25F"/>
  <path d="M46 40L77 61L60 78L46 40Z" fill="#F0C25F"/>
  <path d="M154 40L140 78L123 61L154 40Z" fill="#F0C25F"/>
  <path d="M46 148L60 110L77 127L46 148Z" fill="#F0C25F"/>
  <path d="M154 148L123 127L140 110L154 148Z" fill="#F0C25F"/>
  <circle cx="86" cy="94" r="6" fill="#5E3C2C"/>
  <circle cx="114" cy="94" r="6" fill="#5E3C2C"/>
  <path d="M86 114C92 120 97 122 100 122C103 122 108 120 114 114" stroke="#8A5B43" stroke-width="7" stroke-linecap="round"/>
</svg>
